Coordinates
version=1
nRows=16
nColumns=40
inDegrees=yes

Units are S.I. units (second, meters, Newtons, ...)
If the header above contains a line with 'inDegrees', this indicates whether rotational values are in degrees (yes) or radians (no).

endheader
time	pelvis_tilt	pelvis_list	pelvis_rotation	pelvis_tx	pelvis_ty	pelvis_tz	hip_flexion_r	hip_adduction_r	hip_rotation_r	knee_angle_r	knee_angle_r_beta	ankle_angle_r	subtalar_angle_r	mtp_angle_r	hip_flexion_l	hip_adduction_l	hip_rotation_l	knee_angle_l	knee_angle_l_beta	ankle_angle_l	subtalar_angle_l	mtp_angle_l	lumbar_extension	lumbar_bending	lumbar_rotation	arm_flex_r	arm_add_r	arm_rot_r	elbow_flex_r	pro_sup_r	wrist_flex_r	wrist_dev_r	arm_flex_l	arm_add_l	arm_rot_l	elbow_flex_l	pro_sup_l	wrist_flex_l	wrist_dev_l
      1.00000000	      3.22492410	      6.35416418	      6.77403068	     -0.30328360	      1.08410515	     -0.77016163	      5.08315427	     -3.76522001	    -16.83187984	     19.80050761	      0.34558405	     -0.71621920	      0.00000000	      0.00000000	     14.55866444	     -9.37088938	     -4.71517372	     94.97662706	      1.65765485	     -8.23795127	      0.00000000	      0.00000000	    -10.56642733	      1.87909943	      0.45658401	     89.77210428	    -18.30421507	     35.44893353	     33.86018706	     86.04474642	      0.00000000	      0.00000000	     89.82131499	    -10.03197804	     39.26426045	     35.73565954	     85.77676956	      0.00000000	      0.00000000
      1.00500000	      3.21594263	      6.37402951	      6.77546420	     -0.30338025	      1.08405368	     -0.77025036	      5.11097108	     -3.79353221	    -16.80737147	     19.83631893	      0.34620908	     -0.68979414	      0.00000000	      0.00000000	     14.56675629	     -9.34408029	     -4.73519730	     94.98288270	      1.65776404	     -8.24902752	      0.00000000	      0.00000000	    -10.55507226	      1.86069773	      0.46124704	     89.77201664	    -18.30346876	     35.41470955	     33.86368902	     85.99188544	      0.00000000	      0.00000000	     89.82212807	    -10.03902517	     39.26275363	     35.73072501	     85.89236779	      0.00000000	      0.00000000
      1.01000000	      3.21296220	      6.35716979	      6.78347019	     -0.30346690	      1.08403559	     -0.77029578	      5.10464232	     -3.76416789	    -16.79519626	     19.78797607	      0.34536533	     -0.70924869	      0.00000000	      0.00000000	     14.57871013	     -9.36036130	     -4.74181959	     94.98719716	      1.65783934	     -8.22500602	      0.00000000	      0.00000000	    -10.54574787	      1.85833906	      0.48673187	     89.77469388	    -18.36157452	     35.48877419	     33.88713898	     85.89219309	      0.00000000	      0.00000000	     89.82050195	     -9.98559135	     39.22999723	     35.71582725	     85.78325362	      0.00000000	      0.00000000
      1.01500000	      3.21902688	      6.37650666	      6.78665234	     -0.30354287	      1.08400422	     -0.77036124	      5.10630245	     -3.78323880	    -16.76505013	     19.82035801	      0.34593051	     -0.75411839	      0.00000000	      0.00000000	     14.56885194	     -9.34243762	     -4.75853254	     94.96385788	      1.65743199	     -8.30604266	      0.00000000	      0.00000000	    -10.54712045	      1.83773738	      0.46260412	     89.77271715	    -18.31647645	     35.39861465	     33.83406550	     85.97276186	      0.00000000	      0.00000000	     89.82317021	    -10.00045193	     39.19241863	     35.68732778	     85.90951782	      0.00000000	      0.00000000
      1.02000000	      3.19357365	      6.38987647	      6.78028718	     -0.30363541	      1.08392640	     -0.77041729	      5.15379489	     -3.80620705	    -16.75589573	     19.83960618	      0.34626645	     -0.68726944	      0.00000000	      0.00000000	     14.59955901	     -9.32298964	     -4.79057850	     94.97832344	      1.65768446	     -8.25743213	      0.00000000	      0.00000000	    -10.51958700	      1.80824227	      0.47971948	     89.77371663	    -18.33838594	     35.41680752	     33.85424467	     85.94290452	      0.00000000	      0.00000000	     89.82385764	     -9.98566148	     39.17730868	     35.68267490	     85.85875719	      0.00000000	      0.00000000
      1.02500000	      3.20988673	      6.40917128	      6.79069054	     -0.30370398	      1.08392157	     -0.77048034	      5.13796668	     -3.82375960	    -16.76750724	     19.84113141	      0.34629307	     -0.69563944	      0.00000000	      0.00000000	     14.58475189	     -9.30505323	     -4.79667315	     94.97283136	      1.65758861	     -8.30657967	      0.00000000	      0.00000000	    -10.53686750	      1.79210188	      0.44219919	     89.77391922	    -18.28808093	     35.34724966	     33.82851009	     85.96989904	      0.00000000	      0.00000000	     89.82429942	    -10.02362767	     39.16984993	     35.70342098	     85.88984067	      0.00000000	      0.00000000
      1.03000000	      3.16549036	      6.41821125	      6.81776071	     -0.30378646	      1.08378122	     -0.77060454	      5.23702495	     -3.85894783	    -16.81336902	     19.96412852	      0.34843977	     -0.66396473	      0.00000000	      0.00000000	     14.64113565	     -9.26651236	     -4.78192530	     94.97276725	      1.65758749	     -8.33622011	      0.00000000	      0.00000000	    -10.47815091	      1.78136400	      0.37928736	     89.77858935	    -18.29795707	     35.63674259	     33.88200458	     85.72462753	      0.00000000	      0.00000000	     89.82599591	    -10.15713886	     39.45005607	     35.81029044	     85.63323133	      0.00000000	      0.00000000
      1.03500000	      3.19036395	      6.43671703	      6.81434620	     -0.30385320	      1.08378784	     -0.77063159	      5.19319297	     -3.83739664	    -16.66477906	     19.94545649	      0.34811389	     -0.68186931	      0.00000000	      0.00000000	     14.61642895	     -9.26236546	     -4.81355684	     94.99266890	      1.65793484	     -8.29626485	      0.00000000	      0.00000000	    -10.51358872	      1.74790985	      0.41007882	     89.77773903	    -18.30310915	     35.36155379	     33.84479945	     85.95979115	      0.00000000	      0.00000000	     89.82466206	    -10.04323138	     39.11563227	     35.72697378	     85.91602591	      0.00000000	      0.00000000
      1.04000000	      3.18550712	      6.46441340	      6.81817787	     -0.30390853	      1.08372645	     -0.77068497	      5.18504515	     -3.85267347	    -16.62928398	     19.90990263	      0.34749335	     -0.68044490	      0.00000000	      0.00000000	     14.61887623	     -9.22837999	     -4.82632720	     94.97477026	      1.65762245	     -8.37324076	      0.00000000	      0.00000000	    -10.50546820	      1.70531099	      0.41261263	     89.77658009	    -18.33024314	     35.38074361	     33.86502892	     85.94202443	      0.00000000	      0.00000000	     89.82724070	    -10.00880638	     39.10848659	     35.72502641	     85.86166531	      0.00000000	      0.00000000
      1.04500000	      3.09984882	      6.47976542	      6.86312033	     -0.30401019	      1.08348932	     -0.77077252	      5.32936074	     -3.88938112	    -16.62478495	     20.04590907	      0.34986711	     -0.55263017	      0.00000000	      0.00000000	     14.73818708	     -9.19061637	     -4.80687491	     95.04193788	      1.65879474	     -8.26859296	      0.00000000	      0.00000000	    -10.40607062	      1.68279376	      0.31266231	     89.78165635	    -18.29651568	     35.61566830	     33.87431919	     85.75128194	      0.00000000	      0.00000000	     89.82859055	    -10.23278769	     39.47751868	     35.95271020	     85.71941672	      0.00000000	      0.00000000
      1.05000000	      3.18085292	      6.49322834	      6.84882742	     -0.30404509	      1.08354819	     -0.77080277	      5.22563763	     -3.87466005	    -16.61342125	     19.97176519	      0.34857306	     -0.68889449	      0.00000000	      0.00000000	     14.63628054	     -9.20117917	     -4.84117787	     95.01954121	      1.65840385	     -8.28046718	      0.00000000	      0.00000000	    -10.49135250	      1.66203467	      0.34329663	     89.77793081	    -18.25748146	     35.27995567	     33.81135474	     85.95875889	      0.00000000	      0.00000000	     89.82915958	    -10.05839127	     39.06119970	     35.75436379	     85.88552148	      0.00000000	      0.00000000
      1.05500000	      3.16859202	      6.51541034	      6.87312647	     -0.30415139	      1.08347212	     -0.77085698	      5.25809504	     -3.89103918	    -16.57495902	     19.99859516	      0.34904133	     -0.70189041	      0.00000000	      0.00000000	     14.66430231	     -9.16554927	     -4.83286050	     95.03559365	      1.65868402	     -8.29839357	      0.00000000	      0.00000000	    -10.47842335	      1.62871497	      0.31182446	     89.77773159	    -18.23435303	     35.22265901	     33.78058387	     85.98292229	      0.00000000	      0.00000000	     89.83038674	    -10.08252060	     39.02005463	     35.80239533	     85.89781871	      0.00000000	      0.00000000
      1.06000000	      3.13367381	      6.55887793	      6.88354834	     -0.30422451	      1.08331010	     -0.77091595	      5.33677973	     -3.93926804	    -16.54517316	     20.09497477	      0.35072347	     -0.64258722	      0.00000000	      0.00000000	     14.71119499	     -9.11261945	     -4.84775040	     95.04767106	      1.65889481	     -8.37359049	      0.00000000	      0.00000000	    -10.44607697	      1.56605955	      0.30578289	     89.77999498	    -18.28581932	     35.34272466	     33.84283392	     85.90873229	      0.00000000	      0.00000000	     89.83071314	    -10.06761669	     38.98878306	     35.79754816	     85.79788182	      0.00000000	      0.00000000
      1.06500000	      3.14072436	      6.58669122	      6.90393865	     -0.30428690	      1.08321824	     -0.77097198	      5.33370338	     -3.94998909	    -16.47497331	     20.10196396	      0.35084546	     -0.62763727	      0.00000000	      0.00000000	     14.70288060	     -9.07676787	     -4.84250471	     95.07073678	      1.65929738	     -8.31703192	      0.00000000	      0.00000000	    -10.44800858	      1.52337426	      0.25671355	     89.77779179	    -18.21652987	     35.19332803	     33.75682531	     85.96798337	      0.00000000	      0.00000000	     89.83245509	    -10.10160549	     38.92323544	     35.86671873	     85.89316009	      0.00000000	      0.00000000
      1.07000000	      3.14860065	      6.60630891	      6.93910569	     -0.30438997	      1.08312706	     -0.77102588	      5.34414223	     -3.94769341	    -16.41385567	     20.12306329	      0.35121371	     -0.62627886	      0.00000000	      0.00000000	     14.70464974	     -9.05475229	     -4.82128201	     95.06554903	      1.65920684	     -8.38824832	      0.00000000	      0.00000000	    -10.45597827	      1.50382734	      0.19665456	     89.77796845	    -18.17876385	     35.19165361	     33.76081527	     85.88277156	      0.00000000	      0.00000000	     89.83378822	    -10.13110376	     38.91842790	     35.85669960	     85.80456387	      0.00000000	      0.00000000
      1.07500000	      3.13272545	      6.63233182	      6.95435729	     -0.30447615	      1.08296816	     -0.77106919	      5.37443217	     -3.95134258	    -16.30297924	     20.13952314	      0.35150099	     -0.56672554	      0.00000000	      0.00000000	     14.72685266	     -9.01919331	     -4.82135683	     95.09655548	      1.65974800	     -8.39174920	      0.00000000	      0.00000000	    -10.44190108	      1.45954154	      0.15495240	     89.77915609	    -18.14607086	     35.13380991	     33.74186825	     85.95868431	      0.00000000	      0.00000000	     89.83466016	    -10.15606322	     38.84852435	     35.89585585	     85.87034945	      0.00000000	      0.00000000
